<?xml version="1.0" standalone="no"?>
<!DOCTYPE svg PUBLIC "-//W3C//DTD SVG 20010904//EN"
 "http://www.w3.org/TR/2001/REC-SVG-20010904/DTD/svg10.dtd">
<svg version="1.0" xmlns="http://www.w3.org/2000/svg"
 width="512.000000pt" height="512.000000pt" viewBox="0 0 512.000000 512.000000"
 preserveAspectRatio="xMidYMid meet">

<g transform="translate(0.000000,512.000000) scale(0.100000,-0.100000)"
fill="#000000" stroke="none">
<path d="M2649 4875 c-244 -39 -509 -128 -620 -206 -21 -15 -37 -18 -73 -13
-52 7 -96 -13 -96 -45 0 -10 -9 -26 -20 -36 -22 -20 -26 -45 -9 -62 7 -7 -1
-29 -30 -73 -22 -34 -49 -85 -60 -114 -60 -161 -51 -347 21 -423 17 -18 19
-25 9 -37 -7 -8 -10 -19 -7 -24 3 -4 -1 -26 -9 -48 -20 -57 -19 -142 4 -184
20 -39 72 -79 113 -87 26 -5 26 -6 12 -29 -33 -50 -4 -69 117 -78 28 -3 47
-15 90 -57 30 -30 78 -73 107 -97 28 -24 52 -48 52 -53 0 -6 -4 -8 -10 -4 -5
3 -25 -1 -45 -9 -29 -12 -41 -27 -61 -71 -30 -69 -58 -83 -219 -115 -330 -64
-621 -181 -859 -343 -115 -78 -284 -242 -359 -345 -185 -257 -280 -592 -317
-1112 -16 -229 -31 -936 -21 -964 24 -60 76 -68 234 -34 86 18 136 22 312 22
116 1 216 5 223 9 7 5 29 41 49 80 40 80 35 83 68 -35 l16 -56 52 -6 c120 -14
1211 -18 1797 -7 344 7 678 12 742 12 126 1 142 7 150 59 2 16 9 24 18 21 97
-23 146 -24 312 -7 245 24 280 41 265 124 -6 35 -445 1543 -504 1732 -95 306
-106 337 -140 403 -44 83 -137 173 -225 216 -78 38 -193 68 -320 83 -88 10
-98 14 -98 32 0 11 -8 29 -19 40 -15 17 -55 127 -48 132 1 0 40 21 87 45 56
29 105 64 145 104 110 110 147 213 149 415 1 119 3 128 34 192 19 38 45 76 63
89 45 32 38 69 -19 89 -70 26 -100 64 -108 138 -5 51 -4 62 8 62 57 0 73 126
26 197 l-27 40 25 48 c13 27 24 66 24 87 0 33 -5 42 -30 56 -18 10 -28 23 -25
31 7 18 -13 41 -34 41 -12 0 -17 8 -16 27 0 27 -1 28 -110 45 -60 9 -177 38
-260 63 -144 45 -156 47 -295 51 -94 2 -175 -2 -231 -11z m830 -522 c36 -23
41 -31 41 -63 0 -20 3 -71 6 -112 l7 -75 -34 4 c-19 3 -61 15 -94 28 -87 34
-148 41 -168 20 -34 -33 11 -65 91 -65 23 0 21 -3 -19 -29 -25 -15 -58 -44
-75 -63 l-29 -36 -108 -4 -108 -5 -20 28 c-25 35 -108 76 -179 88 l-55 9 66 1
c74 1 102 18 82 49 -8 13 -26 17 -81 16 -58 0 -81 -6 -135 -33 -39 -19 -81
-49 -101 -73 -20 -22 -65 -63 -102 -89 l-67 -49 -123 0 c-98 0 -124 3 -124 14
0 69 64 308 91 342 5 6 44 17 87 23 42 7 123 23 180 37 124 29 119 29 98 5
-24 -26 -17 -54 17 -65 37 -14 220 16 357 59 90 27 125 33 211 34 57 0 131 7
164 15 82 19 78 19 124 -11z m57 -317 c1 0 4 -63 8 -138 l7 -138 -33 -20 c-74
-45 -159 -31 -218 36 -34 39 -39 83 -16 139 18 41 24 44 24 10 0 -37 28 -75
57 -75 31 0 53 23 61 66 12 63 -51 98 -100 57 -12 -10 -7 -3 9 16 43 48 79 62
145 55 30 -4 56 -7 56 -8z m-796 -47 c-33 -14 -40 -26 -40 -81 0 -36 5 -50 21
-61 29 -21 55 -11 73 28 26 54 20 105 -14 118 -9 3 -4 6 12 6 42 1 106 -28
128 -59 64 -90 10 -219 -109 -259 -52 -17 -150 -13 -196 8 -60 27 -95 73 -95
124 0 23 6 53 13 66 18 37 80 82 139 102 57 20 115 26 68 8z m881 -76 c-8 -14
-10 -9 -10 27 1 42 1 43 10 18 7 -18 7 -33 0 -45z m-445 -31 c7 -4 19 -24 27
-44 l16 -38 -30 0 c-38 0 -37 -20 4 -45 44 -28 51 -80 12 -95 -30 -12 -87 1
-119 25 -36 27 -84 8 -70 -28 9 -24 97 -57 153 -57 42 0 56 5 86 31 19 17 35
40 35 50 0 23 -2 23 51 -1 52 -23 108 -25 164 -5 22 8 41 15 43 15 1 0 2 -28
2 -62 0 -161 -40 -266 -135 -358 -146 -139 -364 -189 -590 -135 -87 21 -135
20 -135 -3 0 -23 25 -46 70 -66 19 -8 30 -15 23 -16 -21 0 -157 30 -218 49
-33 11 -85 22 -115 26 -30 3 -77 11 -105 17 -43 10 -46 12 -25 18 64 15 21 81
-116 180 -83 61 -154 132 -154 157 0 7 -11 20 -26 29 -16 11 -22 20 -15 27 21
21 -1 37 -55 37 -29 0 -65 5 -79 12 -53 24 -69 102 -39 190 17 51 32 58 131
58 46 0 61 -5 93 -30 21 -16 44 -30 52 -30 19 0 38 20 38 42 0 16 11 18 111
18 96 0 114 -3 136 -20 14 -11 33 -20 43 -20 11 0 23 -16 34 -44 45 -118 203
-176 356 -130 102 30 157 80 179 161 10 38 35 64 81 85 20 9 72 9 86 0z"/>
<path d="M1875 3758 c2 -24 4 -46 4 -50 2 -13 40 -19 59 -9 15 8 23 6 37 -9
34 -37 102 -18 93 27 -4 23 -121 83 -163 83 -33 0 -33 0 -30 -42z"/>
<path d="M2958 3479 c-40 -23 -8 -73 64 -104 46 -19 138 -20 181 -1 65 27 111
98 73 112 -8 3 -33 -8 -57 -25 -58 -43 -118 -43 -180 -1 -48 33 -56 34 -81 19z"/>
</g>
</svg>
